<?xml version="1.0" encoding="utf-8"?>
<!-- Generator: Adobe Illustrator 25.0.1, SVG Export Plug-In . SVG Version: 6.00 Build 0)  -->
<svg version="1.1" id="Capa_1" xmlns="http://www.w3.org/2000/svg" xmlns:xlink="http://www.w3.org/1999/xlink" x="0px" y="0px"
	 viewBox="0 0 594 581.8" style="enable-background:new 0 0 594 581.8;" xml:space="preserve">
<g>
	<g>
		<path d="M497.2,267.4c-5,0-9.9-0.2-14.7-0.7v147.6l-129.8-129l51.4-51.1c-7.8-6.4-14.9-13.5-21.2-21.3
			c-44.5,44.3-91.9,91.4-94.8,94.3c-8.5,8.5-19.8,13.2-31.9,13.2c-12,0-23.3-4.7-31.9-13.2c-3.7-3.7-160.3-159.5-173-172.1h299.5
			c-0.5-4.9-0.7-9.8-0.7-14.8c0-5.1,0.3-10.2,0.8-15.2H45c-24.9,0-45,20.3-45,45v270.3c0,24.9,20.3,45.1,45,45.1h422.5
			c24.7,0,45-20.1,45-45.1V266.6C507.5,267.1,502.4,267.4,497.2,267.4z M30,414.3V156.3l129.8,129.1L30,414.3z M51.4,435.4
			l129.7-128.9l22.1,22c14.2,14.2,33,22,53.1,22c20.1,0,38.9-7.8,53.1-22l22.1-22l129.7,128.9H51.4z"/>
	</g>
</g>
<g>
	<path d="M594,120.3c0,8.3-6.7,15-15,15h-66.8v66.8c0,8.3-6.7,15-15,15c-8.3,0-15-6.7-15-15v-66.8h-66.8c-8.3,0-15-6.7-15-15
		c0-4.2,1.7-7.9,4.4-10.6c2.7-2.7,6.5-4.4,10.6-4.4h66.8V38.4c0-8.3,6.7-15,15-15c4.2,0,7.9,1.7,10.6,4.4c2.7,2.7,4.4,6.5,4.4,10.6
		v66.8H579C587.3,105.2,594,112,594,120.3z"/>
</g>
</svg>
