<?xml version="1.0" encoding="utf-8"?>
<!-- Generator: Adobe Illustrator 25.0.1, SVG Export Plug-In . SVG Version: 6.00 Build 0)  -->
<svg version="1.1" id="Capa_1" xmlns="http://www.w3.org/2000/svg" xmlns:xlink="http://www.w3.org/1999/xlink" x="0px" y="0px"
	 viewBox="0 0 60 60" style="enable-background:new 0 0 60 60;" xml:space="preserve">
<style type="text/css">
	.st0{stroke:#000000;stroke-miterlimit:10;}
</style>
<path class="st0" d="M13.3,17.7H30c0.7,0,1.2-0.6,1.2-1.2s-0.6-1.2-1.2-1.2H13.3c-0.7,0-1.2,0.6-1.2,1.2
	C12,17.1,12.6,17.7,13.3,17.7z"/>
<path class="st0" d="M46.7,22.8H13.3c-0.7,0-1.2,0.6-1.2,1.2s0.6,1.2,1.2,1.2h33.3c0.7,0,1.2-0.6,1.2-1.2
	C47.9,23.4,47.4,22.8,46.7,22.8z"/>
<path class="st0" d="M46.7,30.4H13.3c-0.7,0-1.2,0.6-1.2,1.2c0,0.7,0.6,1.2,1.2,1.2h33.3c0.7,0,1.2-0.6,1.2-1.2
	C47.8,31,47.4,30.4,46.7,30.4z"/>
<path class="st0" d="M59.5,33V9.8c0-4.1-3.3-7.5-7.4-7.6c-0.1,0-0.1,0-0.2,0L8.1,2.3C4,2.3,0.5,5.7,0.5,9.9v27.1
	c0,4.1,3.4,7.6,7.6,7.6h7.7v12.8c0,0.6,0.3,1,0.8,1.2c0.1,0,0.3,0.1,0.4,0.1c0.3,0,0.7-0.1,0.9-0.4l12.4-13.7l21.3-0.1
	c4.1,0,7.6-3.4,7.6-7.6v-0.1l0,0L59.5,33L59.5,33z M56.9,36.9c0,2.8-2.2,5-5,5L30,42.1c-0.3,0-0.7,0.1-0.9,0.4L18.5,54.2V43.3
	c0-0.7-0.6-1.2-1.2-1.2H8.1c-2.8,0-5-2.2-5-5V9.9c0-2.8,2.2-5,5-5h11.7L52,4.8c2.8,0,5,2.2,5,5L56.9,36.9z"/>
</svg>
